HIERARCHY
ROOT Hips
{
	OFFSET 0.000000 83.214638 0.000000
	CHANNELS 6 Xposition Yposition Zposition Xrotation Yrotation Zrotation
	JOINT Pelvis
	{
		OFFSET 0.000000 0.000000 0.000000
		CHANNELS 3 Xrotation Yrotation Zrotation
		JOINT LeftUpLeg
		{
			OFFSET 8.479700 -4.795502 -0.379100
			CHANNELS 3 Xrotation Yrotation Zrotation
			JOINT LeftLeg
			{
				OFFSET 0.024144 -32.555107 0.112900
				CHANNELS 3 Xrotation Yrotation Zrotation
				JOINT LeftFoot
				{
					OFFSET -0.024144 -32.638630 -3.012600
					CHANNELS 3 Xrotation Yrotation Zrotation
					JOINT LeftToeBase
					{
						OFFSET 0.970200 -13.225400 11.864200
						CHANNELS 3 Xrotation Yrotation Zrotation
						End Site
						{
							OFFSET 0.000000 12.319262 0.000000
						}
					}
					JOINT LFootTongue
					{
						OFFSET 1.142400 -1.059800 6.665200
						CHANNELS 3 Xrotation Yrotation Zrotation
						End Site
						{
							OFFSET 0.000000 12.319262 0.000000
						}
					}
				}
				JOINT LeftPantLeg
				{
					OFFSET 0.918482 -16.533964 -2.284700
					CHANNELS 3 Xrotation Yrotation Zrotation
					End Site
					{
						OFFSET 0.350399 24.744368 0.000000
					}
				}
			}
		}
		JOINT RightUpLeg
		{
			OFFSET -8.479700 -4.795502 -0.379100
			CHANNELS 3 Xrotation Yrotation Zrotation
			JOINT RightLeg
			{
				OFFSET -0.023144 -32.555092 0.112900
				CHANNELS 3 Xrotation Yrotation Zrotation
				JOINT RightFoot
				{
					OFFSET 0.023144 -32.638641 -3.012700
					CHANNELS 3 Xrotation Yrotation Zrotation
					JOINT RightToeBase
					{
						OFFSET -0.970200 -13.225400 11.864200
						CHANNELS 3 Xrotation Yrotation Zrotation
						End Site
						{
							OFFSET 0.000000 12.319244 0.000000
						}
					}
					JOINT RFootTongue
					{
						OFFSET -1.142200 -1.059800 6.665200
						CHANNELS 3 Xrotation Yrotation Zrotation
						End Site
						{
							OFFSET 0.000000 12.319243 0.000000
						}
					}
				}
				JOINT RightPantLeg
				{
					OFFSET -0.919482 -16.533978 -2.284800
					CHANNELS 3 Xrotation Yrotation Zrotation
					End Site
					{
						OFFSET -0.350400 24.744419 0.000000
					}
				}
			}
		}
	}
	JOINT Spine
	{
		OFFSET 0.000000 7.722000 1.166200
		CHANNELS 3 Xrotation Yrotation Zrotation
		JOINT Spine1
		{
			OFFSET 0.000000 12.024101 0.248800
			CHANNELS 3 Xrotation Yrotation Zrotation
			JOINT Spine2
			{
				OFFSET 0.000000 11.502998 -0.491200
				CHANNELS 3 Xrotation Yrotation Zrotation
				JOINT Neck
				{
					OFFSET 0.000000 18.430702 -3.123100
					CHANNELS 3 Xrotation Yrotation Zrotation
					JOINT Head
					{
						OFFSET 0.000000 9.051102 1.034000
						CHANNELS 3 Xrotation Yrotation Zrotation
						JOINT HairB
						{
							OFFSET 0.208400 24.786102 24.822300
							CHANNELS 3 Xrotation Yrotation Zrotation
							End Site
							{
								OFFSET 0.000000 32.263779 0.000000
							}
						}
						JOINT HairA
						{
							OFFSET -7.081100 24.428299 23.196600
							CHANNELS 3 Xrotation Yrotation Zrotation
							End Site
							{
								OFFSET 0.000000 32.263779 0.000000
							}
						}
						JOINT Hat
						{
							OFFSET 16.728800 15.048294 -15.439601
							CHANNELS 3 Xrotation Yrotation Zrotation
							End Site
							{
								OFFSET 0.000000 32.263779 0.000000
							}
						}
					}
				}
				JOINT LeftShoulder
				{
					OFFSET 6.197800 13.665199 -4.064700
					CHANNELS 3 Xrotation Yrotation Zrotation
					JOINT LeftArm
					{
						OFFSET 7.778100 -0.187103 -1.709300
						CHANNELS 3 Xrotation Yrotation Zrotation
						JOINT LeftForeArm
						{
							OFFSET 22.049376 0.000000 0.000000
							CHANNELS 3 Xrotation Yrotation Zrotation
							JOINT LeftHand
							{
								OFFSET 23.009392 0.000000 0.000000
								CHANNELS 3 Xrotation Yrotation Zrotation
								JOINT LeftHandThumb1
								{
									OFFSET 3.507191 -2.063065 3.133727
									CHANNELS 3 Xrotation Yrotation Zrotation
									JOINT LeftHandThumb2
									{
										OFFSET 3.101337 -1.790558 1.790558
										CHANNELS 3 Xrotation Yrotation Zrotation
										JOINT LeftHandThumb3
										{
											OFFSET 3.058640 -1.765907 1.765906
											CHANNELS 3 Xrotation Yrotation Zrotation
											End Site
											{
												OFFSET -0.415260 3.926476 -0.049563
											}
										}
									}
								}
								JOINT LeftHandIndex1
								{
									OFFSET 11.334419 -0.901459 3.706815
									CHANNELS 3 Xrotation Yrotation Zrotation
									JOINT LeftHandIndex2
									{
										OFFSET 3.283112 0.000000 0.000000
										CHANNELS 3 Xrotation Yrotation Zrotation
										JOINT LeftHandIndex3
										{
											OFFSET 3.323853 0.000000 0.000000
											CHANNELS 3 Xrotation Yrotation Zrotation
											End Site
											{
												OFFSET -1.135597 3.097809 0.402452
											}
										}
									}
								}
								JOINT LeftHandMiddle1
								{
									OFFSET 11.335861 0.000000 0.000000
									CHANNELS 3 Xrotation Yrotation Zrotation
									JOINT LeftHandMiddle2
									{
										OFFSET 3.410492 0.000000 0.000000
										CHANNELS 3 Xrotation Yrotation Zrotation
										JOINT LeftHandMiddle3
										{
											OFFSET 3.312172 0.000000 0.000000
											CHANNELS 3 Xrotation Yrotation Zrotation
											End Site
											{
												OFFSET -1.150200 3.080154 0.400270
											}
										}
									}
								}
								JOINT LeftHandRing1
								{
									OFFSET 11.514786 -0.013176 -3.003090
									CHANNELS 3 Xrotation Yrotation Zrotation
									JOINT LeftHandRing2
									{
										OFFSET 3.053307 0.000000 0.000000
										CHANNELS 3 Xrotation Yrotation Zrotation
										JOINT LeftHandRing3
										{
											OFFSET 3.295807 0.000000 0.000000
											CHANNELS 3 Xrotation Yrotation Zrotation
											End Site
											{
												OFFSET -1.281006 3.013344 0.375733
											}
										}
									}
								}
								JOINT LeftHandPinky1
								{
									OFFSET 10.518692 -0.960396 -5.730441
									CHANNELS 3 Xrotation Yrotation Zrotation
									JOINT LeftHandPinky2
									{
										OFFSET 2.861649 0.000000 0.000000
										CHANNELS 3 Xrotation Yrotation Zrotation
										JOINT LeftHandPinky3
										{
											OFFSET 2.863380 0.000000 0.000000
											CHANNELS 3 Xrotation Yrotation Zrotation
											End Site
											{
												OFFSET -0.843597 2.711159 0.369971
											}
										}
									}
								}
							}
							JOINT LSleeve
							{
								OFFSET 6.676277 -0.344902 -1.011730
								CHANNELS 3 Xrotation Yrotation Zrotation
								End Site
								{
									OFFSET 0.000000 14.885353 0.000000
								}
							}
						}
					}
				}
				JOINT RightShoulder
				{
					OFFSET -6.197800 13.665199 -4.064700
					CHANNELS 3 Xrotation Yrotation Zrotation
					JOINT RightArm
					{
						OFFSET -7.778100 -0.187103 -1.709300
						CHANNELS 3 Xrotation Yrotation Zrotation
						JOINT RightForeArm
						{
							OFFSET -22.049376 0.000000 0.000000
							CHANNELS 3 Xrotation Yrotation Zrotation
							JOINT RightHand
							{
								OFFSET -23.009392 0.000000 0.000000
								CHANNELS 3 Xrotation Yrotation Zrotation
								JOINT RightHandThumb1
								{
									OFFSET -3.507191 -2.063065 3.133727
									CHANNELS 3 Xrotation Yrotation Zrotation
									JOINT RightHandThumb2
									{
										OFFSET -3.101337 -1.790558 1.790558
										CHANNELS 3 Xrotation Yrotation Zrotation
										JOINT RightHandThumb3
										{
											OFFSET -3.058640 -1.765907 1.765906
											CHANNELS 3 Xrotation Yrotation Zrotation
											End Site
											{
												OFFSET 0.415260 3.926476 -0.049563
											}
										}
									}
								}
								JOINT RightHandIndex1
								{
									OFFSET -11.334419 -0.901459 3.706815
									CHANNELS 3 Xrotation Yrotation Zrotation
									JOINT RightHandIndex2
									{
										OFFSET -3.283112 0.000000 0.000000
										CHANNELS 3 Xrotation Yrotation Zrotation
										JOINT RightHandIndex3
										{
											OFFSET -3.323853 0.000000 0.000000
											CHANNELS 3 Xrotation Yrotation Zrotation
											End Site
											{
												OFFSET 1.135597 3.097809 0.402452
											}
										}
									}
								}
								JOINT RightHandMiddle1
								{
									OFFSET -11.335861 0.000000 0.000000
									CHANNELS 3 Xrotation Yrotation Zrotation
									JOINT RightHandMiddle2
									{
										OFFSET -3.410492 0.000000 0.000000
										CHANNELS 3 Xrotation Yrotation Zrotation
										JOINT RightHandMiddle3
										{
											OFFSET -3.312172 0.000000 0.000000
											CHANNELS 3 Xrotation Yrotation Zrotation
											End Site
											{
												OFFSET 1.150200 3.080154 0.400270
											}
										}
									}
								}
								JOINT RightHandRing1
								{
									OFFSET -11.514786 -0.013176 -3.003090
									CHANNELS 3 Xrotation Yrotation Zrotation
									JOINT RightHandRing2
									{
										OFFSET -3.053307 0.000000 0.000000
										CHANNELS 3 Xrotation Yrotation Zrotation
										JOINT RightHandRing3
										{
											OFFSET -3.295807 0.000000 0.000000
											CHANNELS 3 Xrotation Yrotation Zrotation
											End Site
											{
												OFFSET 1.281006 3.013344 0.375733
											}
										}
									}
								}
								JOINT RightHandPinky1
								{
									OFFSET -10.518692 -0.960396 -5.730441
									CHANNELS 3 Xrotation Yrotation Zrotation
									JOINT RightHandPinky2
									{
										OFFSET -2.861649 0.000000 0.000000
										CHANNELS 3 Xrotation Yrotation Zrotation
										JOINT RightHandPinky3
										{
											OFFSET -2.863380 0.000000 0.000000
											CHANNELS 3 Xrotation Yrotation Zrotation
											End Site
											{
												OFFSET 0.843597 2.711159 0.369971
											}
										}
									}
								}
							}
							JOINT RSleeve
							{
								OFFSET -6.676277 -0.344902 -1.011730
								CHANNELS 3 Xrotation Yrotation Zrotation
								End Site
								{
									OFFSET 0.000000 14.885353 0.000000
								}
							}
						}
					}
				}
				JOINT Backpack
				{
					OFFSET 0.000000 -2.471497 36.677502
					CHANNELS 3 Xrotation Yrotation Zrotation
					End Site
					{
						OFFSET 0.000000 20.427315 0.000000
					}
				}
				JOINT Hood
				{
					OFFSET 0.000000 18.754097 -10.431000
					CHANNELS 3 Xrotation Yrotation Zrotation
					JOINT Hood1
					{
						OFFSET 0.000000 -5.011002 -7.685901
						CHANNELS 3 Xrotation Yrotation Zrotation
						End Site
						{
							OFFSET 0.000000 9.175140 0.000000
						}
					}
				}
				JOINT LHoodieString
				{
					OFFSET 5.250500 16.397697 3.089900
					CHANNELS 3 Xrotation Yrotation Zrotation
					JOINT LHoodieString1
					{
						OFFSET 0.257700 -6.364304 3.694600
						CHANNELS 3 Xrotation Yrotation Zrotation
						JOINT LHoodieString2
						{
							OFFSET 0.000000 -9.643799 2.679100
							CHANNELS 3 Xrotation Yrotation Zrotation
							End Site
							{
								OFFSET 0.000000 10.009018 0.000000
							}
						}
					}
				}
				JOINT RHoodieString
				{
					OFFSET -5.250500 16.397697 3.089900
					CHANNELS 3 Xrotation Yrotation Zrotation
					JOINT RHoodieString1
					{
						OFFSET -0.257700 -6.364304 3.694600
						CHANNELS 3 Xrotation Yrotation Zrotation
						JOINT RHoodieString2
						{
							OFFSET 0.000000 -9.643799 2.679100
							CHANNELS 3 Xrotation Yrotation Zrotation
							End Site
							{
								OFFSET 0.000000 10.009018 0.000000
							}
						}
					}
				}
			}
			JOINT LBackpack_Strap
			{
				OFFSET 15.223200 -7.719803 -6.610900
				CHANNELS 3 Xrotation Yrotation Zrotation
				End Site
				{
					OFFSET 0.000000 16.040596 0.000000
				}
			}
			JOINT RBackpack_Strap
			{
				OFFSET -15.223000 -7.719803 -6.610900
				CHANNELS 3 Xrotation Yrotation Zrotation
				End Site
				{
					OFFSET 0.000000 16.040596 0.000000
				}
			}
		}
	}
	JOINT BoyFacialAnim_Joint
	{
		OFFSET 1.000000 -82.208099 -1.550900
		CHANNELS 3 Xrotation Yrotation Zrotation
		End Site
		{
			OFFSET 0.000000 30.012791 0.000000
		}
	}
}
MOTION
Frames: 5
Frame Time: 0.016667
2.861582 34.829117 -12.664280 35.523356 3.192274 2.186512 0.000000 -0.000000 -0.000000 -74.834216 -6.261151 5.867939 130.165688 2.660343 -1.106409 29.079397 6.622964 -22.148763 0.000001 -0.000001 -0.000001 0.000001 -0.000001 -0.000001 -0.000000 -0.000001 0.000000 -69.183956 14.379695 -21.166367 130.313944 2.923816 2.017252 22.152327 8.135431 12.397951 0.000002 -0.000000 -0.000000 0.000002 -0.000000 -0.000000 -0.000000 -0.000002 -0.000000 20.873400 4.828400 -5.646653 16.625275 2.079679 -1.485671 17.328738 1.234476 -2.301335 5.476094 -1.525564 3.253846 0.036678 -8.619862 6.396879 0.000000 0.000000 -0.000000 0.000000 0.000000 -0.000000 0.000000 0.000000 -0.000000 1.353966 -36.456647 -6.881264 -62.004491 -39.879893 -54.567727 -0.000014 -60.951857 -0.000033 -18.879891 -14.506202 -10.306283 46.706866 -54.290889 -12.631203 3.448328 53.010843 10.294983 -0.000002 -0.000003 -0.000004 6.697755 5.391187 -58.720434 3.793610 5.478589 -69.379873 -0.000002 0.000001 -0.000003 -2.544097 3.154101 -51.895224 5.923356 5.850625 -90.709092 0.000002 -0.000003 0.000001 0.963616 5.963285 -53.197874 4.594724 5.715053 -77.580178 -0.000002 -0.000000 -0.000004 -0.907355 26.005013 -39.715498 3.064076 5.146695 -61.512595 -0.000003 0.000003 -0.000003 -0.000001 0.000003 -0.000003 0.501204 13.720770 0.229931 -44.186874 22.328131 43.767917 0.000020 66.681996 -0.000038 -26.725456 16.671151 -4.017984 69.260249 51.829852 -9.321578 -17.238248 -69.068341 -27.413504 -0.000001 0.000001 -0.000002 4.914281 -3.615856 60.176480 3.071673 -4.379538 70.075931 -0.000003 0.000001 0.000000 0.967472 -5.391934 56.500383 4.691397 -4.657033 90.421582 0.000002 0.000001 0.000000 3.739685 -7.060339 61.039276 4.198925 -4.634618 84.346928 -0.000002 -0.000005 -0.000002 1.020355 -22.211471 53.091863 2.717055 -4.234644 65.356748 -0.000004 0.000003 -0.000003 -0.000003 -0.000004 -0.000005 0.000000 -0.000000 -0.000001 0.000000 -0.000000 -0.000001 0.000000 -0.000000 -0.000001 0.000000 -0.000000 -0.000001 0.000000 -0.000000 -0.000001 0.000000 0.000001 -0.000001 0.000000 -0.000000 -0.000001 0.000000 -0.000000 -0.000001 0.000000 0.000001 -0.000001 -0.000001 0.000001 -0.000000 -0.000001 0.000001 -0.000000 0.000000 -0.000000 -0.000000 
2.599411 34.719673 -13.192966 33.209889 2.321346 2.187381 -0.000002 0.000000 0.000000 -73.029271 -6.570795 7.014358 130.836385 1.921150 -0.979225 29.095455 6.715836 -22.374231 -0.000003 -0.000002 0.000001 -0.000003 -0.000002 0.000001 0.000000 0.000001 0.000000 -68.527063 13.733473 -19.758523 131.173018 2.358955 1.313786 22.369506 7.675684 12.504931 0.000002 0.000001 -0.000001 0.000002 0.000001 -0.000001 -0.000000 0.000001 -0.000000 21.200038 4.555999 -6.360662 17.022949 1.980981 -1.805810 18.108141 1.141504 -2.575396 5.617633 -1.520869 3.438340 1.609247 -7.888320 6.936111 0.000000 -0.000001 -0.000000 0.000000 -0.000001 -0.000000 0.000000 -0.000001 -0.000000 0.477522 -34.381796 -9.362758 -61.426172 -41.959396 -53.402230 -0.000042 -61.272896 -0.000044 -22.963465 -13.256068 -12.254856 46.706428 -54.290428 -12.630059 3.450937 53.011277 10.293362 0.000001 0.000002 0.000003 6.698405 5.389830 -58.719942 3.793564 5.478574 -69.379381 -0.000000 -0.000001 -0.000004 -2.545113 3.153138 -51.894193 5.923210 5.850600 -90.707897 -0.000000 -0.000003 -0.000002 0.964040 5.963676 -53.199281 4.594563 5.715038 -77.578566 0.000000 0.000001 -0.000000 -0.905707 26.004139 -39.717253 3.064186 5.146757 -61.513872 -0.000001 -0.000000 -0.000004 0.000000 -0.000000 -0.000001 0.583486 12.269621 0.145178 -46.315229 24.522729 46.813464 0.000004 65.396049 -0.000014 -21.012635 17.831701 -3.834774 69.234131 51.862087 -9.337172 -17.171411 -69.029143 -27.340636 0.000004 0.000001 -0.000006 4.909847 -3.611848 60.155047 3.069813 -4.378868 70.051397 0.000001 -0.000001 0.000003 0.966395 -5.390616 56.478920 4.689399 -4.657063 90.397000 -0.000002 0.000001 0.000003 3.737759 -7.059899 61.017686 4.196928 -4.634420 84.322346 -0.000001 0.000000 0.000000 1.013339 -22.210933 53.073326 2.715637 -4.233989 65.337610 -0.000003 -0.000001 0.000000 -0.000001 -0.000000 0.000001 -0.000000 0.000000 0.000001 -0.000000 0.000000 0.000001 -0.000000 0.000000 0.000001 -0.000000 0.000000 0.000001 -0.000000 0.000000 0.000001 0.000000 0.000000 0.000001 -0.000000 0.000000 0.000001 -0.000000 0.000000 0.000001 0.000000 0.000000 0.000001 -0.000002 0.000000 -0.000000 -0.000002 0.000000 -0.000000 -0.000002 0.000000 0.000000 
2.415788 34.666473 -13.538338 31.500231 1.706623 2.161968 -0.000000 -0.000000 -0.000000 -71.593401 -6.734084 7.833540 131.234217 1.518854 -0.859822 29.091958 6.702618 -22.487126 0.000001 -0.000001 0.000002 0.000001 -0.000001 0.000002 -0.000000 0.000001 -0.000000 -67.854603 13.339458 -18.752249 131.691607 2.317809 0.924976 22.505316 7.064361 12.737656 -0.000003 0.000002 -0.000002 -0.000003 0.000002 -0.000002 -0.000000 0.000000 -0.000000 21.407401 4.209320 -6.745880 17.202555 1.870333 -1.986120 18.500448 1.040075 -2.690536 5.684570 -1.489046 3.465682 2.673367 -7.397683 7.196646 0.000000 0.000000 0.000000 0.000000 0.000000 0.000000 0.000000 0.000000 0.000000 -0.501352 -31.291071 -12.871384 -60.476728 -44.977363 -51.911760 0.000027 -61.886514 0.000025 -28.497602 -11.740406 -12.578106 46.706077 -54.289885 -12.628712 3.453690 53.011759 10.291726 -0.000001 0.000001 0.000000 6.699126 5.388255 -58.718733 3.793482 5.478505 -69.378275 -0.000000 -0.000001 -0.000005 -2.546227 3.152096 -51.892984 5.923087 5.850630 -90.706579 -0.000001 0.000001 -0.000003 0.964519 5.964079 -53.200709 4.594409 5.714984 -77.576906 -0.000000 0.000000 -0.000002 -0.903861 26.003150 -39.719182 3.064299 5.146849 -61.515354 -0.000000 0.000000 0.000002 0.000000 -0.000002 0.000001 0.552214 11.477478 0.087595 -48.643193 26.757881 49.917153 0.000005 63.773579 0.000010 -14.598375 19.870923 -3.658908 69.205649 51.896395 -9.358315 -17.081250 -68.975977 -27.242124 0.000001 -0.000001 -0.000004 4.904433 -3.606900 60.131087 3.067724 -4.378107 70.024021 0.000001 0.000002 0.000002 0.965196 -5.389107 56.454952 4.687181 -4.657074 90.369577 -0.000003 0.000000 -0.000000 3.735618 -7.059416 60.993603 4.194715 -4.634207 84.294916 -0.000002 -0.000000 -0.000001 1.005570 -22.210303 53.052637 2.714070 -4.233268 65.316273 0.000002 0.000001 0.000000 -0.000001 -0.000002 0.000001 -0.000000 -0.000000 0.000001 -0.000000 -0.000000 0.000001 -0.000000 -0.000000 0.000001 -0.000000 -0.000000 0.000001 -0.000000 -0.000000 0.000001 0.000000 0.000000 -0.000000 -0.000000 -0.000000 0.000001 -0.000000 -0.000000 0.000001 0.000000 0.000000 -0.000000 0.000000 0.000000 -0.000000 0.000000 0.000000 -0.000000 -0.000000 -0.000000 -0.000000 
2.280008 34.640976 -13.788525 30.137004 1.222616 2.130724 -0.000004 -0.000000 -0.000000 -70.370695 -6.932054 8.477018 131.498545 1.342196 -0.836223 29.073489 6.529626 -22.473032 -0.000001 0.000000 0.000001 -0.000001 0.000000 0.000001 -0.000000 -0.000002 -0.000000 -67.211568 13.117057 -18.000347 132.037706 2.654054 0.729589 22.611992 6.312016 13.008361 0.000001 0.000000 -0.000001 0.000001 0.000000 -0.000001 0.000000 0.000003 -0.000000 21.525690 3.866272 -6.990644 17.308519 1.764367 -2.107498 18.739553 0.943237 -2.743026 5.724960 -1.448774 3.430576 3.539762 -7.023165 7.344356 0.000000 0.000000 0.000000 0.000000 0.000000 0.000000 0.000000 0.000000 0.000000 -1.190603 -27.773393 -16.681111 -58.867440 -47.971612 -49.903316 0.000005 -63.757617 0.000014 -34.031274 -10.583142 -11.107783 46.705728 -54.289281 -12.627176 3.456522 53.012298 10.290121 -0.000000 0.000000 0.000000 6.699900 5.386531 -58.717415 3.793377 5.478472 -69.376977 -0.000001 0.000003 -0.000003 -2.547359 3.151038 -51.891802 5.922929 5.850620 -90.705042 -0.000000 -0.000003 0.000003 0.965011 5.964521 -53.202229 4.594241 5.714964 -77.575171 -0.000002 0.000003 -0.000000 -0.901994 26.002093 -39.721156 3.064454 5.146921 -61.517034 -0.000003 -0.000002 -0.000004 0.000000 0.000002 -0.000001 0.425787 11.211947 0.063302 -50.733607 28.440160 52.955604 -0.000042 62.997567 0.000036 -8.850937 21.981446 -3.713555 69.176006 51.931212 -9.384716 -16.971915 -68.909328 -27.122539 -0.000000 0.000000 0.000001 4.898572 -3.601262 60.105501 3.065490 -4.377308 69.994795 -0.000001 -0.000000 0.000000 0.963893 -5.387484 56.429356 4.684795 -4.657088 90.340337 0.000002 0.000002 0.000002 3.733389 -7.058928 60.967894 4.192342 -4.633955 84.265663 0.000001 -0.000002 0.000000 0.997371 -22.209613 53.030576 2.712370 -4.232486 65.293473 -0.000004 -0.000001 0.000000 -0.000002 -0.000000 0.000001 0.000000 -0.000000 -0.000001 0.000000 -0.000000 -0.000001 0.000000 -0.000000 -0.000001 0.000000 -0.000000 -0.000001 0.000000 -0.000000 -0.000000 0.000000 -0.000000 -0.000000 0.000000 -0.000000 -0.000001 0.000000 -0.000000 -0.000000 0.000000 -0.000000 -0.000000 -0.000002 0.000000 -0.000000 -0.000002 0.000000 -0.000000 -0.000004 -0.000000 -0.000000 
2.179956 34.637199 -13.966553 29.033696 0.836597 2.098966 0.000001 0.000000 0.000000 -69.323510 -7.064702 8.980275 131.662046 1.389009 -0.815324 29.043709 6.257010 -22.360040 -0.000000 0.000000 0.000002 -0.000000 0.000000 0.000002 -0.000000 -0.000001 -0.000000 -66.474160 13.397624 -17.461300 132.237899 3.505956 0.967310 22.696655 5.479907 13.295474 0.000002 0.000000 -0.000002 0.000002 0.000000 -0.000002 0.000000 -0.000002 0.000000 21.578355 3.526346 -7.130025 17.359161 1.662021 -2.184650 18.863261 0.849934 -2.748509 5.745515 -1.402226 3.348719 4.259351 -6.738452 7.407414 0.000000 0.000001 0.000000 0.000000 0.000001 0.000000 0.000000 0.000001 0.000000 -1.471511 -24.595007 -20.001010 -56.443717 -50.000513 -47.503470 -0.000014 -67.329403 -0.000017 -38.156623 -10.095687 -8.717053 46.705742 -54.288567 -12.625254 3.459608 53.012879 10.288444 0.000000 -0.000000 -0.000002 6.700697 5.384706 -58.716124 3.793244 5.478430 -69.375755 -0.000004 -0.000001 -0.000004 -2.548517 3.149946 -51.890675 5.922760 5.850623 -90.703457 -0.000001 -0.000001 -0.000000 0.965552 5.964961 -53.203741 4.594030 5.714897 -77.573211 0.000001 -0.000002 -0.000004 -0.900073 26.000981 -39.723188 3.064624 5.147002 -61.518817 -0.000004 0.000000 -0.000000 -0.000000 0.000003 -0.000002 0.263112 11.153647 0.069187 -51.972064 29.135661 55.668279 -0.000027 63.901522 0.000024 -4.906432 23.250247 -3.864139 69.146335 51.965145 -9.416103 -16.844995 -68.830931 -26.983591 0.000000 -0.000002 0.000000 4.892910 -3.595141 60.079075 3.063175 -4.376448 69.964592 -0.000001 0.000001 0.000000 0.962515 -5.385817 56.402920 4.682352 -4.657100 90.310093 0.000002 -0.000003 0.000001 3.731074 -7.058441 60.941338 4.189890 -4.633735 84.235412 0.000000 -0.000000 -0.000001 0.988934 -22.208876 53.007804 2.710637 -4.231697 65.269896 -0.000001 0.000003 -0.000001 -0.000002 -0.000003 -0.000002 -0.000000 0.000000 0.000001 -0.000000 0.000000 0.000001 -0.000000 0.000000 0.000001 -0.000000 0.000000 0.000001 -0.000000 0.000000 0.000001 -0.000000 -0.000000 0.000001 -0.000000 0.000000 0.000001 -0.000000 0.000000 0.000001 -0.000000 -0.000000 0.000001 0.000000 -0.000000 -0.000000 0.000000 -0.000000 -0.000000 0.000001 0.000000 0.000000 
